<svg xmlns="http://www.w3.org/2000/svg" xmlns:xlink="http://www.w3.org/1999/xlink" viewBox="0 0 226.89 228.77"><defs><style>.cls-1{isolation:isolate;}.cls-2{opacity:0.4;mix-blend-mode:multiply;fill:url(#linear-gradient);}.cls-3{fill:#9faed0;}.cls-4{fill:#a8dedb;stroke:#1f2687;}.cls-4,.cls-5{stroke-miterlimit:10;stroke-width:6px;}.cls-5{fill:none;stroke:#212683;}.cls-6{fill:#212683;}</style><linearGradient id="linear-gradient" x1="-1781.23" y1="-90.91" x2="-1573.63" y2="-90.91" gradientTransform="translate(1254.47 1347.67) rotate(43.53)" gradientUnits="userSpaceOnUse"><stop offset="0" stop-color="#efa6c2"/><stop offset="1" stop-color="#96cdbd"/></linearGradient></defs><title>Essential Oil</title><g class="cls-1"><g id="Layer_2" data-name="Layer 2"><g id="Layer_1-2" data-name="Layer 1"><path class="cls-2" d="M207.86,164.53a69.19,69.19,0,0,0-34-114.94A69.2,69.2,0,1,0,43.45,95.34a69.2,69.2,0,1,0,91.18,86.77A69.2,69.2,0,0,0,207.86,164.53Z"/><ellipse class="cls-3" cx="110.1" cy="155.12" rx="83.58" ry="38.49"/><path class="cls-4" d="M109.57,73H161.5a0,0,0,0,1,0,0v51.93a51.93,51.93,0,0,1-51.93,51.93h0a51.93,51.93,0,0,1-51.93-51.93v0A51.93,51.93,0,0,1,109.57,73Z" transform="translate(-56.21 114.05) rotate(-45)"/><path class="cls-5" d="M57.72,127.61c-19.51,6.78-32,17.28-32,29.07,0,18,29.33,33.07,68.13,36.34"/><path class="cls-5" d="M161.43,127.53c19.64,6.78,32.25,17.32,32.25,29.15,0,18.08-29.44,33.13-68.36,36.36"/><line class="cls-5" x1="79.99" y1="167.57" x2="79.99" y2="132.68"/><line class="cls-5" x1="79.99" y1="119.68" x2="79.99" y2="127.61"/><circle class="cls-6" cx="109.57" cy="194.04" r="3.18"/><path class="cls-6" d="M53,39.74H49.44A1.54,1.54,0,0,1,47.9,38.2V34.65a1.83,1.83,0,0,0-1.49-1.86,1.74,1.74,0,0,0-2,1.72V38.2a1.54,1.54,0,0,1-1.54,1.54H39.33a1.83,1.83,0,0,0-1.86,1.49,1.74,1.74,0,0,0,1.72,2h3.68a1.54,1.54,0,0,1,1.54,1.54V48.3a1.83,1.83,0,0,0,1.49,1.86,1.74,1.74,0,0,0,2-1.72V44.75a1.54,1.54,0,0,1,1.54-1.54h3.68a1.74,1.74,0,0,0,1.72-2A1.83,1.83,0,0,0,53,39.74Z"/><path class="cls-6" d="M41.21,212.68H37.66a1.54,1.54,0,0,1-1.54-1.54v-3.55a1.83,1.83,0,0,0-1.49-1.86,1.74,1.74,0,0,0-2,1.72v3.68a1.54,1.54,0,0,1-1.54,1.54H27.56a1.83,1.83,0,0,0-1.86,1.49,1.74,1.74,0,0,0,1.72,2h3.68a1.54,1.54,0,0,1,1.54,1.54v3.55a1.83,1.83,0,0,0,1.49,1.86,1.74,1.74,0,0,0,2-1.72v-3.68a1.54,1.54,0,0,1,1.54-1.54h3.68a1.74,1.74,0,0,0,1.72-2A1.83,1.83,0,0,0,41.21,212.68Z"/><path class="cls-6" d="M182,37h-2.13a.92.92,0,0,1-.92-.92V33.9a1.1,1.1,0,0,0-.89-1.11,1,1,0,0,0-1.2,1V36a.92.92,0,0,1-.92.92h-2.13a1.1,1.1,0,0,0-1.11.89,1,1,0,0,0,1,1.2h2.21a.92.92,0,0,1,.92.92v2.13a1.1,1.1,0,0,0,.89,1.11,1,1,0,0,0,1.2-1V40a.92.92,0,0,1,.92-.92H182a1,1,0,0,0,1-1.2A1.1,1.1,0,0,0,182,37Z"/></g></g></g></svg>