<?xml version="1.0" encoding="iso-8859-1"?>
<!-- Generator: Adobe Illustrator 19.0.0, SVG Export Plug-In . SVG Version: 6.00 Build 0)  -->
<svg xmlns="http://www.w3.org/2000/svg" xmlns:xlink="http://www.w3.org/1999/xlink" version="1.1" id="Layer_1" x="0px" y="0px" viewBox="0 0 512.001 512.001" style="enable-background:new 0 0 512.001 512.001;" xml:space="preserve">
<path style="fill:#EAEAE9;" d="M361.405,28.372h-2.289c-4.298,0-7.796,3.497-7.796,7.795v78.351c0,4.298,3.497,7.796,7.796,7.796  h2.289c4.297,0,7.795-3.497,7.795-7.796V36.167C369.2,31.87,365.703,28.372,361.405,28.372z"/>
<rect x="235.004" y="437.212" style="fill:#355966;" width="27.282" height="13.358"/>
<path style="fill:#EAEAE9;" d="M472.957,106.582h-2.288c-4.298,0-7.796,3.497-7.796,7.796v78.35c0,4.299,3.497,7.796,7.796,7.796  h2.288c4.298,0,7.796-3.497,7.796-7.796v-78.35C480.752,110.08,477.255,106.582,472.957,106.582z"/>
<rect x="66.983" y="239.394" style="fill:#ABB2BA;" width="195.293" height="15.039"/>
<rect x="66.983" y="54.686" style="fill:#E84934;" width="195.293" height="172.844"/>
<g>
	<path style="fill:#ABB2BA;" d="M396.3,14.508h-7.437c-4.298,0-7.796,3.497-7.796,7.796v26.888c0,4.298,3.497,7.796,7.796,7.796   h7.437c4.299,0,7.796-3.497,7.796-7.796V22.304C404.097,18.005,400.599,14.508,396.3,14.508z"/>
	<path style="fill:#ABB2BA;" d="M443.208,92.718h-7.436c-4.298,0-7.796,3.497-7.796,7.796v26.888c0,4.298,3.497,7.796,7.796,7.796   h7.436c4.299,0,7.797-3.497,7.797-7.796v-26.888C451.006,96.215,447.508,92.718,443.208,92.718z"/>
</g>
<path style="fill:#EAEAE9;" d="M278.002,6.473H51.261c-15.199,0-27.564,12.365-27.564,27.563v371.298  c0,15.198,12.365,27.563,27.564,27.563h226.741c15.198,0,27.563-12.365,27.563-27.563V34.036  C305.566,18.838,293.2,6.473,278.002,6.473z M266.596,50.371v208.383H62.667V50.371H266.596z M162.439,286.081  c32.3,0,58.578,26.277,58.578,58.578c0,32.298-26.277,58.576-58.578,58.576c-32.299,0-58.577-26.277-58.577-58.576  C103.862,312.358,130.139,286.081,162.439,286.081z"/>
<g style="opacity:0.1;">
	<path d="M44.059,405.333V34.036c0-15.198,12.365-27.563,27.564-27.563H51.261c-15.199,0-27.564,12.365-27.564,27.563v371.298   c0,15.198,12.365,27.563,27.564,27.563h20.362C56.424,432.896,44.059,420.531,44.059,405.333z"/>
</g>
<path style="fill:#ABB2BA;" d="M162.439,290.396c-29.92,0-54.262,24.342-54.262,54.263c0,29.919,24.341,54.261,54.262,54.261  c29.92,0,54.263-24.341,54.263-54.261C216.702,314.738,192.359,290.396,162.439,290.396z M162.676,364.608  c-11,0-19.951-8.95-19.951-19.95c0-11.003,8.951-19.953,19.951-19.953c11.001,0,19.952,8.951,19.952,19.953  C182.629,355.66,173.678,364.608,162.676,364.608z"/>
<g style="opacity:0.1;">
	<path d="M121.109,344.658c0-27.731,20.914-50.656,47.796-53.865c-2.122-0.252-4.276-0.398-6.465-0.398   c-29.92,0-54.262,24.342-54.262,54.263c0,29.919,24.341,54.261,54.262,54.261c2.189,0,4.343-0.146,6.465-0.398   C142.023,395.312,121.109,372.388,121.109,344.658z"/>
</g>
<path style="fill:#EAEAE9;" d="M162.676,336.572c-4.458,0-8.084,3.627-8.084,8.087c0,4.458,3.627,8.083,8.084,8.083  c4.459,0,8.086-3.626,8.086-8.083C170.762,340.2,167.134,336.572,162.676,336.572z"/>
<path d="M276.306,260.372V48.753c0-4.469-3.621-8.091-8.091-8.091H61.049c-4.469,0-8.091,3.621-8.091,8.091v211.62  c0,4.469,3.621,8.091,8.091,8.091h207.165C272.684,268.463,276.306,264.842,276.306,260.372z M260.124,56.844v168.532H69.14V56.844  H260.124z M69.14,252.281v-10.724h190.984v10.724H69.14z"/>
<path d="M94.153,344.658c0,37.652,30.633,68.285,68.286,68.285s68.287-30.633,68.287-68.285c0-37.653-30.633-68.287-68.287-68.287  S94.153,307.005,94.153,344.658z M214.545,344.658c0,28.73-23.374,52.103-52.106,52.103c-28.73,0-52.104-23.373-52.104-52.103  c0-28.731,23.374-52.106,52.104-52.106C191.171,292.554,214.545,315.928,214.545,344.658z"/>
<path d="M140.567,344.658c0,12.19,9.917,22.108,22.109,22.108c12.191,0,22.11-9.917,22.11-22.108  c0-12.193-9.918-22.111-22.11-22.111S140.567,332.467,140.567,344.658z M162.676,338.729c3.269,0,5.928,2.66,5.928,5.929  c0,3.268-2.659,5.926-5.928,5.926c-3.268,0-5.927-2.658-5.927-5.926C156.749,341.389,159.408,338.729,162.676,338.729z"/>
<path d="M472.957,92.558h-2.288c-2.361,0-4.631,0.388-6.764,1.086c-2.888-8.673-11.066-14.95-20.697-14.95h-7.437  c-12.032,0-21.821,9.788-21.821,21.821v26.888c0,12.032,9.788,21.821,21.821,21.821h7.437c1.953,0,3.837-0.283,5.64-0.765v44.272  c0,9.873,6.596,18.225,15.609,20.908v33.839c0,26.477-21.541,48.017-48.018,48.017h-48.017V136.758c0-0.528-0.054-1.042-0.151-1.543  c8.673-2.886,14.953-11.065,14.953-20.697V70.245c1.802,0.483,3.686,0.765,5.639,0.765h7.438c12.032,0,21.821-9.788,21.821-21.821  V22.304c0-12.032-9.788-21.821-21.821-21.821h-7.438c-9.63,0-17.808,6.277-20.695,14.95c-2.132-0.697-4.401-1.085-6.763-1.085  h-2.289c-12.032,0-21.821,9.788-21.821,21.821v78.351c0,9.682,6.343,17.9,15.088,20.745c-0.091,0.484-0.143,0.983-0.143,1.493  v226.916v27.387v56.742c0,26.477-21.541,48.017-48.018,48.017c-20.207,0-38.086-12.766-44.984-31.226h8.977  c4.469,0,8.091-3.621,8.091-8.091v-17.133H278c18.767,0,34.036-15.268,34.036-34.036V34.036C312.036,15.269,296.768,0,278,0H51.261  C32.494,0,17.224,15.268,17.224,34.036v305.158c0,4.469,3.621,8.091,8.091,8.091s8.091-3.621,8.091-8.091V34.036  c0-9.845,8.01-17.854,17.855-17.854h226.741c9.845,0,17.854,8.009,17.854,17.854v371.298c0,9.845-8.009,17.854-17.854,17.854h-9.787  h-39.148H51.261c-9.845,0-17.855-8.009-17.855-17.854v-38.087c0-4.469-3.621-8.091-8.091-8.091s-8.091,3.621-8.091,8.091v38.087  c0,18.767,15.268,34.036,34.037,34.036h169.714v17.133c0,4.469,3.621,8.091,8.091,8.091h13.199  c7.491,27.694,32.928,47.407,61.957,47.407c35.399,0,64.2-28.799,64.2-64.199V391.06v-27.387v-51.999h48.017  c35.399,0,64.2-28.799,64.2-64.199v-34.35c8.247-3.118,14.138-11.073,14.138-20.398v-78.35  C494.777,102.346,484.989,92.558,472.957,92.558z M237.157,439.368h22.966v9.042h-22.966V439.368z M383.224,22.304  c0-3.109,2.53-5.639,5.639-5.639h7.438c3.109,0,5.639,2.53,5.639,5.639v26.888c0,3.109-2.53,5.639-5.639,5.639h-7.438  c-3.109,0-5.639-2.53-5.639-5.639V36.167V22.304z M353.478,36.167c0-3.109,2.53-5.639,5.639-5.639h2.289  c3.109,0,5.638,2.53,5.638,5.639v13.023v65.328c0,3.109-2.529,5.639-5.638,5.639h-2.289c-3.109,0-5.639-2.53-5.639-5.639V36.167z   M470.668,108.74h2.288c3.109,0,5.639,2.53,5.639,5.639v78.35c0,3.11-2.53,5.64-5.639,5.64h-2.288c-3.109,0-5.639-2.53-5.639-5.64  v-65.327v-13.023C465.03,111.27,467.56,108.74,470.668,108.74z M443.208,133.04h-7.437c-3.109,0-5.639-2.53-5.639-5.639v-26.887  c0-3.109,2.53-5.639,5.639-5.639h7.437c3.11,0,5.64,2.53,5.64,5.639v13.865v13.023C448.848,130.511,446.318,133.04,443.208,133.04z"/>
<g style="opacity:0.1;">
	<rect x="68.536" y="53.587" width="10.774" height="203.082"/>
</g>
<g>
</g>
<g>
</g>
<g>
</g>
<g>
</g>
<g>
</g>
<g>
</g>
<g>
</g>
<g>
</g>
<g>
</g>
<g>
</g>
<g>
</g>
<g>
</g>
<g>
</g>
<g>
</g>
<g>
</g>
</svg>
