<?xml version="1.0" encoding="iso-8859-1"?>
<!-- Generator: Adobe Illustrator 19.0.0, SVG Export Plug-In . SVG Version: 6.00 Build 0)  -->
<svg xmlns="http://www.w3.org/2000/svg" xmlns:xlink="http://www.w3.org/1999/xlink" version="1.1" id="Layer_1" x="0px" y="0px" viewBox="0 0 511.999 511.999" style="enable-background:new 0 0 511.999 511.999;" xml:space="preserve">
<path style="fill:#678DBF;" d="M383.249,198.418L383.249,198.418c-9.271,0-16.786,7.515-16.786,16.784v42.03  c0,9.27,7.515,16.784,16.784,16.784l0,0c9.27,0,16.784-7.515,16.784-16.784v-42.03C400.035,205.933,392.52,198.418,383.249,198.418z  "/>
<rect x="236.599" y="130.505" style="fill:#A0C9FF;" width="38.797" height="124.053"/>
<rect x="236.599" y="130.505" style="opacity:0.1;enable-background:new    ;" width="38.797" height="78.31"/>
<polygon style="fill:#FFCE6E;" points="460.947,173.561 51.05,173.561 133.321,8.815 378.676,8.815 "/>
<polygon style="opacity:0.1;enable-background:new    ;" points="133.321,8.815 51.05,173.561 109.815,173.561 192.087,8.815 "/>
<rect x="175.46" y="233.791" style="fill:#678DBF;" width="161.075" height="80.461"/>
<rect x="175.46" y="233.791" style="opacity:0.1;enable-background:new    ;" width="47.012" height="80.461"/>
<rect x="175.46" y="422.732" style="fill:#678DBF;" width="161.075" height="80.461"/>
<rect x="175.46" y="422.732" style="opacity:0.1;enable-background:new    ;" width="47.012" height="80.461"/>
<path style="fill:#A0C9FF;" d="M336.537,278.987H175.46c-28.512,21.789-46.712,54.901-46.712,91.985s18.201,70.196,46.712,91.985  h161.077c28.512-21.789,46.712-54.901,46.712-91.985S365.05,300.775,336.537,278.987z"/>
<path style="opacity:0.1;enable-background:new    ;" d="M175.76,370.972c0-37.084,18.201-70.197,46.712-91.985h-47.012  c-28.512,21.789-46.712,54.901-46.712,91.985s18.201,70.197,46.712,91.985h47.012C193.96,441.169,175.76,408.056,175.76,370.972z"/>
<path d="M51.05,182.376h176.738v42.599h-52.328c-4.869,0-8.815,3.947-8.815,8.815v40.939c-8.764,7.166-16.526,15.353-23.105,24.395  c-2.865,3.937-1.994,9.451,1.942,12.314c3.936,2.864,9.448,1.994,12.314-1.942c5.865-8.061,12.823-15.348,20.708-21.694h154.992  c26.056,20.952,40.94,51.104,40.94,83.17c0,7.616-0.852,15.247-2.53,22.68c-1.073,4.748,1.906,9.468,6.655,10.54  c0.655,0.148,1.307,0.219,1.951,0.219c4.029,0,7.664-2.78,8.59-6.874c1.967-8.705,2.964-17.644,2.964-26.565  c0-37.121-16.971-71.954-46.712-96.243v-40.939c0-4.868-3.945-8.815-8.815-8.815H284.21v-42.599h90.227v8.791  c-9.786,3.6-16.784,13.015-16.784,24.035v42.03c0,14.115,11.484,25.599,25.599,25.599c14.115,0,25.599-11.484,25.599-25.599v-42.03  c0-11.02-6.999-20.435-16.784-24.035v-8.791h68.882c3.055,0,5.891-1.581,7.497-4.178c1.607-2.597,1.754-5.842,0.389-8.574  L386.564,4.876C385.07,1.888,382.016,0,378.676,0H133.321c-3.34,0-6.394,1.888-7.886,4.876l-15.986,32.011  c-2.175,4.356-0.408,9.649,3.948,11.825s9.649,0.408,11.825-3.948l13.551-27.134h234.453l73.467,147.117H65.306l42.31-84.724  c2.175-4.356,0.408-9.649-3.948-11.825c-4.358-2.175-9.649-0.408-11.825,3.948l-48.679,97.477c-1.365,2.733-1.218,5.976,0.389,8.574  C45.16,180.795,47.996,182.376,51.05,182.376z M375.28,215.202c0-4.394,3.575-7.97,7.97-7.97s7.97,3.575,7.97,7.97v42.03  c0,4.394-3.575,7.97-7.97,7.97s-7.97-3.575-7.97-7.97V215.202z M245.418,182.376h21.161v42.599h-21.161V182.376z M275.394,242.605  h52.328v27.568H184.275v-27.568h52.328H275.394z"/>
<path d="M135.73,331.108c-4.68-1.37-9.57,1.312-10.937,5.982c-3.224,11.015-4.86,22.414-4.86,33.882  c0,37.121,16.971,71.954,46.712,96.243v35.969c0,4.868,3.945,8.815,8.815,8.815h161.077c4.869,0,8.815-3.947,8.815-8.815v-35.992  c11.117-9.084,20.549-19.706,28.037-31.66c2.583-4.125,1.334-9.566-2.791-12.149c-4.126-2.583-9.565-1.335-12.15,2.791  c-6.624,10.577-15.01,19.973-24.952,27.967H178.501c-26.055-20.952-40.939-51.103-40.939-83.17c0-9.79,1.396-19.522,4.15-28.928  C143.08,337.373,140.401,332.476,135.73,331.108z M184.275,471.772h143.448v22.599H184.275V471.772z"/>
<g>
</g>
<g>
</g>
<g>
</g>
<g>
</g>
<g>
</g>
<g>
</g>
<g>
</g>
<g>
</g>
<g>
</g>
<g>
</g>
<g>
</g>
<g>
</g>
<g>
</g>
<g>
</g>
<g>
</g>
</svg>
