<svg xmlns="http://www.w3.org/2000/svg" viewBox="0 0 64 64"><g id="_27-equipment" data-name="27-equipment"><circle cx="12" cy="12" r="2" style="fill:#beb4aa"/><circle cx="12" cy="58" r="2" style="fill:#fff"/><circle cx="37" cy="58" r="2" style="fill:#fff"/><path d="M45,55c0-4.59,3.08-12.86,4.83-17.19a4.5,4.5,0,0,1,3.14-2.69C52.56,36.44,49,48.34,49,54c0,5.88,1.92,7.92,3.88,8.94a9.75,9.75,0,0,1-5.55-2.61A7.5,7.5,0,0,1,45,55Z" style="fill:#fff"/><path d="M54,35V63a10.506,10.506,0,0,1-1.12-.06C50.92,61.92,49,59.88,49,54c0-5.66,3.56-17.56,3.97-18.88A4.461,4.461,0,0,1,54,35Z" style="fill:#fff"/><path d="M58.17,37.81C59.92,42.14,63,50.41,63,55a7.5,7.5,0,0,1-2.33,5.33,9.75,9.75,0,0,1-5.55,2.61C57.08,61.92,59,59.88,59,54c0-5.66-3.56-17.56-3.97-18.88A4.5,4.5,0,0,1,58.17,37.81Z" style="fill:#fff"/><path d="M55.03,35.12C55.44,36.44,59,48.34,59,54c0,5.88-1.92,7.92-3.88,8.94A10.506,10.506,0,0,1,54,63V35A4.461,4.461,0,0,1,55.03,35.12Z" style="fill:#fff"/><polygon points="56.22 19 56 23 54 23 52 23 51.78 19 56.22 19" style="fill:#918778"/><path d="M37,1h7.35a3.949,3.949,0,0,1,2.82,1.18l.66.67a4.046,4.046,0,0,1,1.11,3.54L46.33,21.33a2.248,2.248,0,0,1-2.19,1.66L39,23H35l-5.14-.01a2.248,2.248,0,0,1-2.19-1.66L25.06,6.39a4.046,4.046,0,0,1,1.11-3.54l.66-.67A3.949,3.949,0,0,1,29.65,1Z" style="fill:#e8e4dc"/><path d="M12,1A11,11,0,1,0,23,12,10.994,10.994,0,0,0,12,1Zm0,13a2,2,0,1,1,2-2A2.006,2.006,0,0,1,12,14Z" style="fill:#e8e4dc"/><path d="M14,22.82V42H10V22.82a11.2,11.2,0,0,0,4,0Z" style="fill:#d6cec1"/><rect x="35" y="23" width="4" height="16" style="fill:#d6cec1"/><path d="M57,4V5l-.78,14H51.78L51,5V4a3,3,0,0,1,6,0Z" style="fill:#da684e"/><path d="M37,63s-5,0-5-5c0-4,3-19,3-19h4s3,15,3,19C42,63,37,63,37,63Zm0-3a2,2,0,1,0-2-2A2.006,2.006,0,0,0,37,60Z" style="fill:#da684e"/><path d="M7,59c0-3,3-17,3-17h4s3,14,3,17-2,4-5,4S7,62,7,59Zm7-1a2,2,0,1,0-2,2A2.006,2.006,0,0,0,14,58Z" style="fill:#da684e"/><path d="M12,4a8,8,0,1,0,8,8A8,8,0,0,0,12,4Zm0,10a2,2,0,1,1,2-2A2.006,2.006,0,0,1,12,14Z" style="fill:#d6cec1"/><path d="M12,27a2,2,0,0,1,2-2V22.82a11.2,11.2,0,0,1-4,0V42h2Z" style="fill:#beb4aa"/><path d="M37,27a2,2,0,0,1,2-2V23H35V39h2Z" style="fill:#beb4aa"/><path d="M34,58c0-4,3-19,3-19H35s-3,15-3,19c0,5,5,5,5,5s3.485-.012,4.631-2.933C39.114,62.5,34,62.524,34,58Z" style="fill:#bd4c3d"/><path d="M9,58c0-4,3-16,3-16H10S7,56,7,59s2,4,5,4c2.737,0,4.622-.851,4.936-3.274C14.561,62.477,9,62.723,9,58Z" style="fill:#bd4c3d"/><path d="M47.83,2.85l-.66-.67a3.955,3.955,0,0,0-1.356-.894l-.648,14.888a4,4,0,0,1-4,3.826H32.83a4,4,0,0,1-4-3.826L28.186,1.286a3.955,3.955,0,0,0-1.356.894l-.66.67a4.046,4.046,0,0,0-1.11,3.54l2.61,14.94a2.248,2.248,0,0,0,2.19,1.66L35,23h4l5.14-.01a2.248,2.248,0,0,0,2.19-1.66L48.94,6.39a4.046,4.046,0,0,0-1.11-3.54Z" style="fill:#d6cec1"/><path d="M53,19H51.78L52,23h4l.11-2H55A2,2,0,0,1,53,19Z" style="fill:#635d50"/><path d="M53,3a2,2,0,0,1,1.548-1.944A2.973,2.973,0,0,0,51,4V5l.78,14H53Z" style="fill:#bd4c3d"/><rect x="34" y="28" width="2" height="2"/><path d="M40,24l4.121-.008a3.256,3.256,0,0,0,3.19-2.482L49.925,6.562A5.085,5.085,0,0,0,50,5.692a5.01,5.01,0,0,0-1.458-3.547l-.665-.671A4.932,4.932,0,0,0,44.349,0h-14.7a4.932,4.932,0,0,0-3.528,1.474l-.666.671a5.043,5.043,0,0,0-1.381,4.418l2.613,14.943a3.228,3.228,0,0,0,3.173,2.481L34,24v2h2V24h2V38H36V32H34v6.9c-.282,1.417-3,15.173-3,19.1a5.785,5.785,0,0,0,6,6,5.785,5.785,0,0,0,6-6c0-3.926-2.718-17.682-3-19.1ZM29.85,21.987a1.261,1.261,0,0,1-1.191-.826L26.046,6.221A3.132,3.132,0,0,1,26,5.692a3.023,3.023,0,0,1,.877-2.139l.665-.671A2.95,2.95,0,0,1,29.651,2h14.7a2.95,2.95,0,0,1,2.109.882l.664.671A3.019,3.019,0,0,1,48,5.692a3.217,3.217,0,0,1-.045.528L45.341,21.16a1.27,1.27,0,0,1-1.2.827h-.012L37,22ZM41,58a3.85,3.85,0,0,1-4,4c-.163,0-4-.046-4-4,0-3.333,2.2-14.846,2.822-18h2.356C38.8,43.154,41,54.666,41,58Z"/><path d="M34,58a3,3,0,1,0,3-3A3,3,0,0,0,34,58Zm4,0a1,1,0,1,1-1-1A1,1,0,0,1,38,58Z"/><rect x="42" y="4" width="2" height="16"/><rect x="38" y="4" width="2" height="16"/><rect x="34" y="4" width="2" height="16"/><rect x="30" y="4" width="2" height="16"/><path d="M12,0A11.992,11.992,0,0,0,9,23.605V26h2V23.949c.331.028.662.051,1,.051s.669-.023,1-.051V41H11V32H9v9.893C8.708,43.266,6,56.033,6,59c0,2.281,1.041,5,6,5s6-2.719,6-5c0-2.967-2.708-15.734-3-17.107V23.605A11.992,11.992,0,0,0,12,0Zm0,62c-3.516,0-4-1.441-4-3,0-2.228,1.892-11.651,2.81-16h2.38C14.108,47.349,16,56.772,16,59,16,60.559,15.516,62,12,62Zm0-40A10,10,0,1,1,22,12,10.011,10.011,0,0,1,12,22Z"/><rect x="9" y="28" width="2" height="2"/><path d="M9,58a3,3,0,1,0,3-3A3,3,0,0,0,9,58Zm4,0a1,1,0,1,1-1-1A1,1,0,0,1,13,58Z"/><path d="M9,12a3,3,0,1,0,3-3A3,3,0,0,0,9,12Zm4,0a1,1,0,1,1-1-1A1,1,0,0,1,13,12Z"/><rect x="11" y="3" width="2" height="2"/><rect x="11" y="6" width="2" height="2"/><rect x="11" y="16" width="2" height="2"/><rect x="11" y="19" width="2" height="2"/><rect x="19" y="11" width="2" height="2"/><rect x="16" y="11" width="2" height="2"/><rect x="6" y="11" width="2" height="2"/><rect x="3" y="11" width="2" height="2"/><rect x="16.333" y="16.391" width="2" height="1.886" transform="translate(-7.18 17.338) rotate(-45.01)"/><rect x="14.333" y="14.391" width="2" height="1.886" transform="translate(-6.351 15.333) rotate(-45)"/><rect x="7.667" y="7.724" width="2" height="1.886" transform="translate(-3.59 8.667) rotate(-45)"/><rect x="5.667" y="5.724" width="2" height="1.886" transform="translate(-2.761 6.668) rotate(-45.01)"/><rect x="5.724" y="16.334" width="1.886" height="2" transform="translate(-10.304 9.791) rotate(-45)"/><rect x="7.724" y="14.334" width="1.886" height="2" transform="translate(-8.304 10.619) rotate(-45)"/><rect x="14.391" y="7.667" width="1.886" height="2" transform="translate(-1.637 13.381) rotate(-45)"/><rect x="16.391" y="5.667" width="1.886" height="2" transform="translate(0.363 14.209) rotate(-45)"/><path d="M64,55c0-4.726-3.069-13.033-4.9-17.564A5.455,5.455,0,0,0,55,34.1V24h1a1,1,0,0,0,1-.944L58,5V4a4,4,0,0,0-8,0V5.056l1,18A1,1,0,0,0,52,24h1V34.1a5.455,5.455,0,0,0-4.1,3.336C47.069,41.967,44,50.274,44,55a8.518,8.518,0,0,0,2.646,6.055,10.622,10.622,0,0,0,5.873,2.819c.012.006.022.014.034.021l.007-.015a9.654,9.654,0,0,0,2.88,0l.007.015c.012-.007.022-.015.034-.021a10.629,10.629,0,0,0,5.873-2.819A8.518,8.518,0,0,0,64,55ZM52,4a2,2,0,0,1,4,0v.944L55.276,18H52.723L52,5Zm.835,16h2.33l-.111,2H52.946ZM53,38.6V61.857c-1.481-.894-3-2.721-3-7.857C50,50.049,51.829,42.821,53,38.6Zm2,23.257V38.6c1.171,4.221,3,11.449,3,15.4C58,59.136,56.481,60.963,55,61.857ZM46,55c0-4.551,3.324-13.276,4.752-16.816a3.534,3.534,0,0,1,.539-.909C50.118,41.411,48,49.505,48,54a14.578,14.578,0,0,0,1.257,6.574,8.711,8.711,0,0,1-1.236-.97A6.488,6.488,0,0,1,46,55Zm12.743,5.574A14.578,14.578,0,0,0,60,54c0-4.495-2.118-12.589-3.291-16.725a3.534,3.534,0,0,1,.539.909C58.676,41.724,62,50.449,62,55a6.488,6.488,0,0,1-2.021,4.6A8.711,8.711,0,0,1,58.743,60.574Z"/><rect x="53" y="3" width="2" height="2"/></g></svg>