<svg xmlns="http://www.w3.org/2000/svg" viewBox="0 0 64 64"><defs><style>.cls-1{isolation:isolate;}.cls-2{fill:#ff6700;}.cls-3{fill:#9e5010;}.cls-4{fill:#fff;}.cls-5{fill:none;stroke:#000;stroke-miterlimit:10;stroke-width:2px;}.cls-6{opacity:0.19;mix-blend-mode:multiply;}.cls-7{mix-blend-mode:overlay;}</style></defs><title>Icon Color</title><g class="cls-1"><g id="Layer_3" data-name="Layer 3"><g id="Vector"><rect x="6.31" y="53.4" width="56.58" height="5.12" rx="1.13"/><path class="cls-2" d="M46.76,53.4H6.65a7.77,7.77,0,0,1,.46-3.91c.88-2.07,3-4.17,8.32-4.09a17.28,17.28,0,0,0,5.74-1A33.88,33.88,0,0,0,28.08,41,6.83,6.83,0,0,0,28.72,42l.06.09a5.52,5.52,0,0,0,.43.53,3.31,3.31,0,0,0,.26.27,5.71,5.71,0,0,0,.58.51l.23.16a1.53,1.53,0,0,0,.3.19A3.09,3.09,0,0,0,31,44c.19.09.39.16.58.23l.39.11a2.09,2.09,0,0,0,.36.08l.36.07.53.07c1.06.1,2.16.08,3.2.25l.37.07a2.11,2.11,0,0,1,.36.09,4.5,4.5,0,0,1,.7.25,7,7,0,0,1,2.51,2.1c.18.22.34.44.51.66.37.48.73,1,1.1,1.48.14.19.29.36.44.54a14,14,0,0,0,4,3.23l0,0Z"/><path class="cls-3" d="M61.65,52.4a1.28,1.28,0,0,1-1.26,1H47.08a1.24,1.24,0,0,1-.57-.12l0,0a14,14,0,0,1-4-3.23c-.15-.18-.3-.35-.44-.54-.37-.48-.73-1-1.1-1.48-.17-.22-.33-.44-.51-.66a7,7,0,0,0-2.51-2.1,4.5,4.5,0,0,0-.7-.25,2.11,2.11,0,0,0-.36-.09,2.41,2.41,0,0,0-.37-.07c-1-.17-2.14-.15-3.2-.25l-.53-.07-.36-.07a2.09,2.09,0,0,1-.36-.08l-.39-.11c-.19-.07-.39-.14-.58-.23a3.09,3.09,0,0,1-.44-.24,1.53,1.53,0,0,1-.3-.19l-.23-.16a5.71,5.71,0,0,1-.58-.51,3.31,3.31,0,0,1-.26-.27,5.52,5.52,0,0,1-.43-.53L28.72,42a1.29,1.29,0,0,1,.38-1.74l.19-.13.84-.57.95-.67.05.11a1.39,1.39,0,0,0,.27.56l1.87,2.34a1.27,1.27,0,0,0,.85.49h0a.62.62,0,0,0,.19,0,1.38,1.38,0,0,0,.84-.29,1.35,1.35,0,0,0,.22-1.9l-1.87-2.34a1.35,1.35,0,0,0-.55-.41h0c.82-.64,1.56-1.25,2.19-1.81a.57.57,0,0,0,0,.13V36a1.3,1.3,0,0,0,.29.75l1.88,2.34a1.37,1.37,0,0,0,1.06.51,1.28,1.28,0,0,0,.64-.17.63.63,0,0,0,.2-.13,1.35,1.35,0,0,0,.22-1.89l-1.88-2.36a1.37,1.37,0,0,0-.81-.48h0l-.24,0h-.05c.31-.27.56-.51.79-.72a1.26,1.26,0,0,1,1.65-.08c2.13,1.67,7.95,5.62,13.88,4.3a11.72,11.72,0,0,0,6.09-3.62,1.28,1.28,0,0,1,2.1.42C62.1,37.57,63.65,43.38,61.65,52.4Z"/><path class="cls-4" d="M35.16,42.16a1.38,1.38,0,0,1-.84.29.62.62,0,0,1-.19,0h0a1.27,1.27,0,0,1-.85-.49L31.4,39.6,31.13,39s0-.09,0-.14L33,37.5h0a1.35,1.35,0,0,1,.55.41l1.87,2.34A1.35,1.35,0,0,1,35.16,42.16Z"/><path class="cls-4" d="M39.28,39.27l-.07,0a.63.63,0,0,1-.2.13,1.42,1.42,0,0,1-.6.14A1.36,1.36,0,0,1,37.33,39l-1.92-2.46L35.14,36v0c0-.06,0-.1,0-.15l0,0,1.59-1.24h0l.27-.22.57.44,1.91,2.47A1.44,1.44,0,0,1,39.28,39.27Z"/><rect x="1.12" y="25.39" width="56.58" height="5.12" rx="1.13"/><path class="cls-2" d="M41.57,25.39H1.46a7.81,7.81,0,0,1,.46-3.92c.88-2.06,3-4.17,8.32-4.09a17,17,0,0,0,5.74-1,34.19,34.19,0,0,0,6.91-3.42A7.79,7.79,0,0,0,23.53,14l.06.08c.14.19.28.37.43.54l.26.26a4.61,4.61,0,0,0,.58.51l.24.17a1.21,1.21,0,0,0,.29.19,3.68,3.68,0,0,0,.44.23c.19.09.39.17.58.24l.39.11a2.33,2.33,0,0,0,.36.08l.37.07c.17,0,.34,0,.52.06,1.06.1,2.16.08,3.21.26l.36.07A1.9,1.9,0,0,1,32,17a5.24,5.24,0,0,1,.7.24,6.89,6.89,0,0,1,2.51,2.11c.18.22.35.43.51.66.37.48.73,1,1.11,1.47.13.19.28.37.43.55a14,14,0,0,0,4,3.22l0,0Z"/><path class="cls-3" d="M56.46,24.39a1.27,1.27,0,0,1-1.25,1H41.89a1.28,1.28,0,0,1-.57-.13l0,0a14,14,0,0,1-4-3.22c-.15-.18-.3-.36-.43-.55-.38-.48-.74-1-1.11-1.47-.16-.23-.33-.44-.51-.66a6.89,6.89,0,0,0-2.51-2.11A5.24,5.24,0,0,0,32,17a1.9,1.9,0,0,0-.36-.09,2.53,2.53,0,0,0-.36-.07c-1.05-.18-2.15-.16-3.21-.26-.18,0-.35,0-.52-.06l-.37-.07a2.33,2.33,0,0,1-.36-.08l-.39-.11c-.19-.07-.39-.15-.58-.24a3.68,3.68,0,0,1-.44-.23,1.21,1.21,0,0,1-.29-.19l-.24-.17a4.61,4.61,0,0,1-.58-.51L24,14.65c-.15-.17-.29-.35-.43-.54L23.53,14a1.31,1.31,0,0,1,.39-1.75l.18-.12.84-.57.95-.67.05.11a1.45,1.45,0,0,0,.27.56l1.87,2.34a1.31,1.31,0,0,0,.85.49h0a.62.62,0,0,0,.19,0,1.36,1.36,0,0,0,.85-.3,1.34,1.34,0,0,0,.21-1.89L28.32,9.9a1.35,1.35,0,0,0-.55-.4h0c.82-.64,1.56-1.25,2.2-1.81a.57.57,0,0,0,0,.13A.54.54,0,0,0,30,8a1.31,1.31,0,0,0,.28.75l1.88,2.34a1.35,1.35,0,0,0,1.06.52,1.28,1.28,0,0,0,.64-.17.63.63,0,0,0,.2-.13,1.36,1.36,0,0,0,.22-1.9L32.36,7.05a1.3,1.3,0,0,0-.81-.48h0l-.23,0h0L32,5.83a1.28,1.28,0,0,1,1.66-.08c2.12,1.66,7.95,5.62,13.87,4.3a11.68,11.68,0,0,0,6.09-3.62,1.29,1.29,0,0,1,2.11.41C56.91,9.56,58.46,15.36,56.46,24.39Z"/><path class="cls-4" d="M30,14.14a1.36,1.36,0,0,1-.85.3.62.62,0,0,1-.19,0h0a1.31,1.31,0,0,1-.85-.49l-1.87-2.34L25.94,11s0-.09,0-.14l1.85-1.4h0a1.35,1.35,0,0,1,.55.4l1.87,2.35A1.34,1.34,0,0,1,30,14.14Z"/><path class="cls-4" d="M34.09,11.26l-.07,0a.63.63,0,0,1-.2.13,1.42,1.42,0,0,1-.6.14A1.38,1.38,0,0,1,32.14,11L30.22,8.57,30,8V8s0-.09,0-.14l0,0,1.58-1.24h0l.28-.22.56.43,1.92,2.47A1.47,1.47,0,0,1,34.09,11.26Z"/></g><g id="Line"><rect class="cls-5" x="6.31" y="53.4" width="56.58" height="5.12" rx="1.13"/><path class="cls-5" d="M46.76,53.4H6.65a7.77,7.77,0,0,1,.46-3.91c.88-2.07,3-4.17,8.32-4.09a17.28,17.28,0,0,0,5.74-1A33.88,33.88,0,0,0,28.08,41,6.83,6.83,0,0,0,28.72,42l.06.09a5.52,5.52,0,0,0,.43.53,3.31,3.31,0,0,0,.26.27,5.71,5.71,0,0,0,.58.51l.23.16a1.53,1.53,0,0,0,.3.19A3.09,3.09,0,0,0,31,44c.19.09.39.16.58.23l.39.11a2.09,2.09,0,0,0,.36.08l.36.07.53.07c1.06.1,2.16.08,3.2.25l.37.07a2.11,2.11,0,0,1,.36.09,4.5,4.5,0,0,1,.7.25,7,7,0,0,1,2.51,2.1c.18.22.34.44.51.66.37.48.73,1,1.1,1.48.14.19.29.36.44.54a14,14,0,0,0,4,3.23l0,0Z"/><path class="cls-5" d="M61.65,52.4a1.28,1.28,0,0,1-1.26,1H47.08a1.24,1.24,0,0,1-.57-.12l0,0a14,14,0,0,1-4-3.23c-.15-.18-.3-.35-.44-.54-.37-.48-.73-1-1.1-1.48-.17-.22-.33-.44-.51-.66a7,7,0,0,0-2.51-2.1,4.5,4.5,0,0,0-.7-.25,2.11,2.11,0,0,0-.36-.09,2.41,2.41,0,0,0-.37-.07c-1-.17-2.14-.15-3.2-.25l-.53-.07-.36-.07a2.09,2.09,0,0,1-.36-.08l-.39-.11c-.19-.07-.39-.14-.58-.23a3.09,3.09,0,0,1-.44-.24,1.53,1.53,0,0,1-.3-.19l-.23-.16a5.71,5.71,0,0,1-.58-.51,3.31,3.31,0,0,1-.26-.27,5.52,5.52,0,0,1-.43-.53L28.72,42a1.29,1.29,0,0,1,.38-1.74l.19-.13.84-.57.95-.67.05.11a1.39,1.39,0,0,0,.27.56l1.87,2.34a1.27,1.27,0,0,0,.85.49h0a.62.62,0,0,0,.19,0,1.38,1.38,0,0,0,.84-.29,1.35,1.35,0,0,0,.22-1.9l-1.87-2.34a1.35,1.35,0,0,0-.55-.41h0c.82-.64,1.56-1.25,2.19-1.81a.57.57,0,0,0,0,.13V36a1.3,1.3,0,0,0,.29.75l1.88,2.34a1.37,1.37,0,0,0,1.06.51,1.28,1.28,0,0,0,.64-.17.63.63,0,0,0,.2-.13,1.35,1.35,0,0,0,.22-1.89l-1.88-2.36a1.37,1.37,0,0,0-.81-.48h0l-.24,0h-.05c.31-.27.56-.51.79-.72a1.26,1.26,0,0,1,1.65-.08c2.13,1.67,7.95,5.62,13.88,4.3a11.72,11.72,0,0,0,6.09-3.62,1.28,1.28,0,0,1,2.1.42C62.1,37.57,63.65,43.38,61.65,52.4Z"/><path class="cls-5" d="M35.16,42.16a1.38,1.38,0,0,1-.84.29.62.62,0,0,1-.19,0h0a1.27,1.27,0,0,1-.85-.49L31.4,39.6,31.13,39s0-.09,0-.14L33,37.5h0a1.35,1.35,0,0,1,.55.41l1.87,2.34A1.35,1.35,0,0,1,35.16,42.16Z"/><path class="cls-5" d="M39.28,39.27l-.07,0a.63.63,0,0,1-.2.13,1.42,1.42,0,0,1-.6.14A1.36,1.36,0,0,1,37.33,39l-1.92-2.46L35.14,36v0c0-.06,0-.1,0-.15l0,0,1.59-1.24h0l.27-.22.57.44,1.91,2.47A1.44,1.44,0,0,1,39.28,39.27Z"/><rect class="cls-5" x="1.12" y="25.39" width="56.58" height="5.12" rx="1.13"/><path class="cls-5" d="M41.57,25.39H1.46a7.81,7.81,0,0,1,.46-3.92c.88-2.06,3-4.17,8.32-4.09a17,17,0,0,0,5.74-1,34.19,34.19,0,0,0,6.91-3.42A7.79,7.79,0,0,0,23.53,14l.06.08c.14.19.28.37.43.54l.26.26a4.61,4.61,0,0,0,.58.51l.24.17a1.21,1.21,0,0,0,.29.19,3.68,3.68,0,0,0,.44.23c.19.09.39.17.58.24l.39.11a2.33,2.33,0,0,0,.36.08l.37.07c.17,0,.34,0,.52.06,1.06.1,2.16.08,3.21.26l.36.07A1.9,1.9,0,0,1,32,17a5.24,5.24,0,0,1,.7.24,6.89,6.89,0,0,1,2.51,2.11c.18.22.35.43.51.66.37.48.73,1,1.11,1.47.13.19.28.37.43.55a14,14,0,0,0,4,3.22l0,0Z"/><path class="cls-5" d="M56.46,24.39a1.27,1.27,0,0,1-1.25,1H41.89a1.28,1.28,0,0,1-.57-.13l0,0a14,14,0,0,1-4-3.22c-.15-.18-.3-.36-.43-.55-.38-.48-.74-1-1.11-1.47-.16-.23-.33-.44-.51-.66a6.89,6.89,0,0,0-2.51-2.11A5.24,5.24,0,0,0,32,17a1.9,1.9,0,0,0-.36-.09,2.53,2.53,0,0,0-.36-.07c-1.05-.18-2.15-.16-3.21-.26-.18,0-.35,0-.52-.06l-.37-.07a2.33,2.33,0,0,1-.36-.08l-.39-.11c-.19-.07-.39-.15-.58-.24a3.68,3.68,0,0,1-.44-.23,1.21,1.21,0,0,1-.29-.19l-.24-.17a4.61,4.61,0,0,1-.58-.51L24,14.65c-.15-.17-.29-.35-.43-.54L23.53,14a1.31,1.31,0,0,1,.39-1.75l.18-.12.84-.57.95-.67.05.11a1.45,1.45,0,0,0,.27.56l1.87,2.34a1.31,1.31,0,0,0,.85.49h0a.62.62,0,0,0,.19,0,1.36,1.36,0,0,0,.85-.3,1.34,1.34,0,0,0,.21-1.89L28.32,9.9a1.35,1.35,0,0,0-.55-.4h0c.82-.64,1.56-1.25,2.2-1.81a.57.57,0,0,0,0,.13A.54.54,0,0,0,30,8a1.31,1.31,0,0,0,.28.75l1.88,2.34a1.35,1.35,0,0,0,1.06.52,1.28,1.28,0,0,0,.64-.17.63.63,0,0,0,.2-.13,1.36,1.36,0,0,0,.22-1.9L32.36,7.05a1.3,1.3,0,0,0-.81-.48h0l-.23,0h0L32,5.83a1.28,1.28,0,0,1,1.66-.08c2.12,1.66,7.95,5.62,13.87,4.3a11.68,11.68,0,0,0,6.09-3.62,1.29,1.29,0,0,1,2.11.41C56.91,9.56,58.46,15.36,56.46,24.39Z"/><path class="cls-5" d="M30,14.14a1.36,1.36,0,0,1-.85.3.62.62,0,0,1-.19,0h0a1.31,1.31,0,0,1-.85-.49l-1.87-2.34L25.94,11s0-.09,0-.14l1.85-1.4h0a1.35,1.35,0,0,1,.55.4l1.87,2.35A1.34,1.34,0,0,1,30,14.14Z"/><path class="cls-5" d="M34.09,11.26l-.07,0a.63.63,0,0,1-.2.13,1.42,1.42,0,0,1-.6.14A1.38,1.38,0,0,1,32.14,11L30.22,8.57,30,8V8s0-.09,0-.14l0,0,1.58-1.24h0l.28-.22.56.43,1.92,2.47A1.47,1.47,0,0,1,34.09,11.26Z"/></g><g id="Shadow"><path class="cls-6" d="M62.88,54.54a1.14,1.14,0,0,0-1.13-1.14H60.39a1.28,1.28,0,0,0,1.26-1c2-9,.45-14.83-.7-17.54a1.28,1.28,0,0,0-2.1-.42,11.72,11.72,0,0,1-6.09,3.62,9,9,0,0,1-1.14.19,16,16,0,0,1,.3,4.38,10.87,10.87,0,0,1-4.69,8.15c-2.64,1.63-5.94,1.67-9,1.66l-31.6-.11a7.19,7.19,0,0,0,.07,1.07h.79a1.14,1.14,0,0,0-1.13,1.14v2.85a1.13,1.13,0,0,0,1.13,1.13H61.75a1.14,1.14,0,0,0,1.13-1.13ZM46.76,53.4l-.25-.12a1.24,1.24,0,0,0,.57.12Z"/><path class="cls-6" d="M57.88,26.54a1.14,1.14,0,0,0-1.13-1.14H55.39a1.28,1.28,0,0,0,1.26-1c2-9,.45-14.83-.7-17.54a1.28,1.28,0,0,0-2.1-.42,11.72,11.72,0,0,1-6.09,3.62,9,9,0,0,1-1.14.19,16,16,0,0,1,.3,4.38,10.87,10.87,0,0,1-4.69,8.15c-2.64,1.63-5.94,1.67-9,1.66l-31.6-.11a7.19,7.19,0,0,0,.07,1.07h.79a1.14,1.14,0,0,0-1.13,1.14v2.85a1.13,1.13,0,0,0,1.13,1.13H56.75a1.14,1.14,0,0,0,1.13-1.13ZM41.76,25.4l-.25-.12a1.24,1.24,0,0,0,.57.12Z"/></g><g id="Highlight"><g class="cls-7"><path class="cls-4" d="M35.14,36a1.3,1.3,0,0,0,.29.75l1.88,2.34a1.37,1.37,0,0,0,1.06.51,1.28,1.28,0,0,0,.64-.17,1.42,1.42,0,0,1-.6.14A1.36,1.36,0,0,1,37.33,39l-1.92-2.46Z"/><path class="cls-4" d="M47.08,53.4a1.24,1.24,0,0,1-.57-.12l.25.12Z"/></g><g class="cls-7"><path class="cls-4" d="M30,8a1.31,1.31,0,0,0,.28.75l1.88,2.34a1.35,1.35,0,0,0,1.06.52,1.28,1.28,0,0,0,.64-.17,1.42,1.42,0,0,1-.6.14A1.38,1.38,0,0,1,32.14,11L30.22,8.57Z"/><path class="cls-4" d="M41.57,25.39h.32a1.28,1.28,0,0,1-.57-.13Z"/></g><g class="cls-7"><path class="cls-4" d="M2.25,30.51h5.1c-.06-.37-.13-.74-.19-1.12A9.68,9.68,0,0,1,7.08,25a7.33,7.33,0,0,1,4.1-4.18C13,20,15,19.49,16.79,18.63a29.64,29.64,0,0,0,6.1-4.22l.58-.48a6.94,6.94,0,0,1-.58-1A34.19,34.19,0,0,1,16,16.36a17,17,0,0,1-5.74,1c-5.28-.08-7.44,2-8.32,4.09a7.81,7.81,0,0,0-.46,3.92h.79a1.13,1.13,0,0,0-1.13,1.13v2.86A1.13,1.13,0,0,0,2.25,30.51Z"/><path class="cls-4" d="M23.49,13.91l10-8.26A1.24,1.24,0,0,0,32,5.83l-.78.72h0l.23,0L30,7.81a.57.57,0,0,1,0-.13c-.64.56-1.38,1.17-2.2,1.81l-1.85,1.4s0,.09,0,.14l.27.56a1.45,1.45,0,0,1-.27-.56l-.05-.11-.95.67-.84.57-.18.12A1.28,1.28,0,0,0,23.49,13.91Z"/><path class="cls-4" d="M14.38,58.52A20,20,0,0,1,14,55.08c.08-3.49,2.68-6.45,5.62-8.32s6.31-3,9.29-4.79a13,13,0,0,0,4.93-5.17l-.87.7-1.85,1.4c0,.05,0,.09,0,.14l.27.56a1.39,1.39,0,0,1-.27-.56l-.05-.11-.95.67-.84.57-.19.13A1.29,1.29,0,0,0,28.72,42,6.83,6.83,0,0,1,28.08,41a33.88,33.88,0,0,1-6.91,3.41,17.28,17.28,0,0,1-5.74,1c-5.28-.08-7.44,2-8.32,4.09a7.77,7.77,0,0,0-.46,3.91h.79a1.14,1.14,0,0,0-1.13,1.14v2.85a1.13,1.13,0,0,0,1.13,1.13Z"/></g></g></g></g></svg>